<?xml version="1.0" standalone="no"?>
<!DOCTYPE svg PUBLIC "-//W3C//DTD SVG 1.1//EN" "http://www.w3.org/Graphics/SVG/1.1/DTD/svg11.dtd">
<svg width="1024px" height="1024px" version="1.1" xmlns="http://www.w3.org/2000/svg" xmlns:xlink="http://www.w3.org/1999/xlink" xml:space="preserve" style="fill-rule:evenodd;clip-rule:evenodd;stroke-linejoin:round;stroke-miterlimit:1.41421;">
    <g id="Layer_1">
        <g id="Layer_5">
            <path d="M814.437,126.214C981.135,292.912 981.135,564.391 814.437,733.47C731.088,816.819 512,1026.38 512,1026.38C512,1026.38 292.912,816.819 209.563,733.47C42.8651,566.772 42.8651,295.293 209.563,126.214C376.26,-42.8651 647.74,-42.8651 814.437,126.214Z" style="fill:rgb(35,31,32);fill-rule:nonzero;"/>
        </g>
        <g id="Layer_2">
            <path d="M512,0C748.738,0 940.651,191.914 940.651,428.651C940.651,665.389 748.738,857.302 512,857.302C275.262,857.302 83.3488,665.389 83.3488,428.651C83.3488,191.914 275.262,0 512,0Z" style="fill:rgb(35,31,32);"/>
            <path d="M512,0C748.738,0 940.651,191.914 940.651,428.651C940.651,665.389 748.738,857.302 512,857.302C275.262,857.302 83.3488,665.389 83.3488,428.651C83.3488,191.914 275.262,0 512,0Z" style="fill:rgb(35,31,32);"/>
        </g>
        <g id="Layer_3">
            <path d="M512,119.07C677.716,119.07 812.056,253.409 812.056,419.126C812.056,584.842 677.716,719.181 512,719.181C346.284,719.181 211.944,584.842 211.944,419.126C211.944,253.409 346.284,119.07 512,119.07Z" style="fill:white;"/>
        </g>
        <g>
            <path d="M355.295,300.567C353.028,293.766 353.028,284.698 355.295,277.897C357.562,271.097 362.096,262.029 368.897,250.694C375.698,239.359 387.033,230.291 400.635,218.956C414.237,209.888 430.106,200.82 450.508,191.752C470.911,184.952 493.581,180.418 520.785,180.418C547.988,180.418 570.658,184.952 591.061,191.752C609.196,200.82 625.065,209.888 636.4,223.49C647.735,237.092 656.803,250.694 661.337,268.83C665.871,284.698 670.405,302.834 670.405,320.97C670.405,336.839 665.871,350.441 659.07,361.775C652.269,373.11 643.201,384.445 634.133,391.246C625.065,400.314 613.73,407.115 602.396,416.183C591.061,422.984 581.993,429.785 570.658,438.853C559.323,447.92 552.522,454.721 547.988,463.789C541.187,472.857 538.92,484.192 538.92,497.794L538.92,509.129C538.92,515.93 534.386,522.731 527.585,531.798C520.785,538.599 511.717,543.133 498.115,543.133C484.513,543.133 475.445,540.866 466.377,534.065C459.576,527.265 455.042,520.464 455.042,511.396C455.042,488.726 457.309,470.59 464.11,456.988C470.911,441.12 477.712,429.785 486.78,418.45C495.848,407.115 504.916,398.047 516.251,391.246C527.585,382.178 536.653,375.377 545.721,368.576C554.789,361.775 561.59,352.708 568.391,345.907C575.192,339.106 577.459,327.771 577.459,316.436C577.459,298.3 572.925,284.698 561.59,275.63C550.255,266.563 534.386,262.029 516.251,262.029C504.916,262.029 493.581,262.029 486.78,264.296C477.712,266.563 470.911,268.83 464.11,271.097C457.309,273.363 450.508,280.164 443.707,284.698C436.907,291.499 432.373,298.3 425.572,307.368C421.038,314.169 414.237,318.703 402.902,323.237C393.834,325.504 382.499,325.504 371.164,320.97C362.096,314.169 357.562,309.635 355.295,300.567ZM457.309,638.346C457.309,624.744 461.843,613.409 468.644,606.609C475.445,599.808 484.513,595.274 493.581,595.274L509.45,595.274C518.518,595.274 527.585,599.808 534.386,606.609C541.187,613.409 545.721,624.744 545.721,638.346C545.721,651.948 541.187,661.016 534.386,667.817C527.585,674.618 518.518,676.885 509.45,676.885L493.581,676.885C484.513,676.885 475.445,674.618 468.644,667.817C459.576,661.016 457.309,649.681 457.309,638.346Z" style="fill:black;fill-rule:nonzero;"/>
        </g>
    </g>
</svg>
