<?xml version="1.0" encoding="utf-8"?>
<!-- Generator: Adobe Illustrator 18.1.1, SVG Export Plug-In . SVG Version: 6.00 Build 0)  -->
<svg version="1.1" id="flag-tag" xmlns="http://www.w3.org/2000/svg" xmlns:xlink="http://www.w3.org/1999/xlink" x="0px" y="0px"
	 viewBox="0 0 32 8" enable-background="new 0 0 32 8" xml:space="preserve">
<g>
	<path d="M2,4.1l3.1,1.7C5.3,5.9,5.4,6,5.5,6.1c0.1,0.1,0.1,0.2,0.1,0.3c0,0.1,0,0.3-0.1,0.4C5.3,6.8,5.2,6.8,5.1,6.8
		c-0.1,0-0.2,0-0.4-0.1L0,4.1l4.7-2.6C4.9,1.4,5,1.3,5.1,1.3c0.1,0,0.2,0,0.3,0.1c0.1,0.1,0.1,0.2,0.1,0.4c0,0.1,0,0.2-0.1,0.3
		C5.4,2.2,5.3,2.3,5.2,2.3L2,4.1z"/>
	<path d="M25.3,0.8l-3.1,6.7c-0.1,0.2-0.2,0.3-0.2,0.3C21.9,7.9,21.8,8,21.7,8c-0.1,0-0.2,0-0.3-0.1c-0.1-0.1-0.1-0.2-0.1-0.3
		c0-0.1,0-0.2,0.1-0.4l3.1-6.7c0.1-0.2,0.1-0.3,0.2-0.3C24.8,0,24.9,0,25,0c0.1,0,0.2,0,0.3,0.1c0.1,0.1,0.1,0.2,0.1,0.3
		C25.5,0.5,25.4,0.7,25.3,0.8z"/>
	<path d="M30,4.1l-3.1-1.7c-0.2-0.1-0.3-0.2-0.3-0.2c-0.1-0.1-0.1-0.2-0.1-0.3c0-0.1,0-0.3,0.1-0.4c0.1-0.1,0.2-0.1,0.3-0.1
		c0.1,0,0.2,0,0.4,0.1L32,4.1l-4.7,2.6c-0.2,0.1-0.3,0.1-0.4,0.1c-0.1,0-0.2,0-0.3-0.1c-0.1-0.1-0.1-0.2-0.1-0.4
		c0-0.1,0-0.2,0.1-0.3c0.1-0.1,0.2-0.1,0.3-0.2L30,4.1z"/>
</g>
<path d="M7,0.1v7.6h12.8V0.1H7z M19,6.9H7.7V5.9H19V6.9z M19.1,5.2H7.8V4.2h11.3V5.2z M19.1,3.5h-5.7V2.5h5.7V3.5z M19.1,1.8h-5.7
	V0.8h5.7V1.8z"/>
</svg>
