<?xml version="1.0" encoding="utf-8"?>
<!-- Generator: Adobe Illustrator 18.1.1, SVG Export Plug-In . SVG Version: 6.00 Build 0)  -->
<svg version="1.1" id="Layer_1" xmlns="http://www.w3.org/2000/svg" xmlns:xlink="http://www.w3.org/1999/xlink" x="0px" y="0px"
	 viewBox="0 0 280 320" enable-background="new 0 0 280 320" xml:space="preserve">
<g opacity="0.9">
	<g>
		<path fill="#FFFF48" d="M29.1,12C18.6,12,9,21.2,9,31.7v178.8c0,10.5,7.7,23.8,16.6,29.6l98.7,63.6c8.8,5.7,23.4,5.7,32.3,0
			l98.1-63.2c8.9-5.7,16.4-19,16.4-29.6V31.7c0-10.5-9.1-19.7-19.6-19.7H29.1z"/>
	</g>
</g>
<g>
	<path fill="none" stroke="#000000" stroke-miterlimit="10" stroke-dasharray="2.9948,1.9965" d="M37,22.5
		c-9.7,0-17.5,7.1-17.5,16.8v165.5c0,9.7,6.6,22,14.8,27.3l90.8,58.7c8.2,5.3,21.5,5.3,29.7,0l90.6-58.3
		c8.2-5.3,15.2-17.5,15.2-27.3v-166c0-9.7-8.7-16.8-18.4-16.8H37z"/>
</g>
</svg>
