<?xml version="1.0" encoding="utf-8"?>
<!-- Generator: Adobe Illustrator 18.1.1, SVG Export Plug-In . SVG Version: 6.00 Build 0)  -->
<svg version="1.1" id="shield" xmlns="http://www.w3.org/2000/svg" xmlns:xlink="http://www.w3.org/1999/xlink" x="0px" y="0px"
	 viewBox="0 0 660 360" enable-background="new 0 0 660 360" xml:space="preserve">
<path fill="#FFFFFF" d="M45.2,24C36.7,24,30,30.8,30,39.3V216c0,8.5,6.6,17.3,14.7,19.5l268.8,74.6c8.2,2.3,21.5,2.3,29.7,0
	l266.3-74c8.2-2.3,14.5-11.1,14.5-19.5V39.3c0-8.5-6.4-15.3-14.8-15.3H45.2z"/>
<path fill="none" stroke="#010101" stroke-miterlimit="10" stroke-dasharray="3,2" d="M52.7,33.5c-7.9,0-15.2,5.9-15.2,13.9V210
	c0,7.9,6.6,16.2,14.3,18.3l261.9,69.8c7.6,2.1,20.2,2.1,27.9,0l259.3-69.2c7.6-2.1,13.6-10.3,13.6-18.3V47.4
	c0-7.9-5.9-13.9-13.8-13.9H52.7z"/>
</svg>
