<?xml version="1.0" encoding="utf-8"?>
<!-- Generator: Adobe Illustrator 16.0.0, SVG Export Plug-In . SVG Version: 6.00 Build 0)  -->
<!DOCTYPE svg PUBLIC "-//W3C//DTD SVG 1.1//EN" "http://www.w3.org/Graphics/SVG/1.1/DTD/svg11.dtd">
<svg version="1.1" id="arrow_1_" xmlns="http://www.w3.org/2000/svg" xmlns:xlink="http://www.w3.org/1999/xlink" x="0px" y="0px"
	 width="30px" height="30px" viewBox="0 0 30 30" enable-background="new 0 0 30 30" xml:space="preserve">
<g>
	<path fill="#FFFFFF" d="M14.999,28.499c-7.444,0-13.5-6.056-13.5-13.5s6.056-13.5,13.5-13.5s13.5,6.056,13.5,13.5
		S22.443,28.499,14.999,28.499z"/>
	<g>
		<path fill="#333333" d="M14.999,2.999c6.617,0,12,5.383,12,12s-5.383,12-12,12s-12-5.383-12-12S8.382,2.999,14.999,2.999
			 M14.999-0.001c-8.284,0-15,6.716-15,15s6.716,15,15,15s15-6.716,15-15S23.283-0.001,14.999-0.001L14.999-0.001z"/>
	</g>
</g>
<g>
	<path fill="#E3E3E3" d="M8.233,16.075l5.097-5.727c0.184-0.204,0.394-0.359,0.63-0.468c0.236-0.108,0.486-0.162,0.748-0.162
		c0.499,0,0.919,0.164,1.259,0.492c0.341,0.328,0.512,0.731,0.512,1.21c0,0.262-0.05,0.515-0.152,0.758
		c-0.102,0.242-0.248,0.459-0.438,0.649l-1.387,1.387h9.112c0.518,0,0.957,0.177,1.313,0.531c0.357,0.354,0.537,0.797,0.537,1.329
		c0,0.518-0.179,0.957-0.537,1.314c-0.357,0.357-0.795,0.536-1.313,0.536h-9.112l1.387,1.594c0.197,0.21,0.344,0.428,0.443,0.654
		c0.099,0.227,0.147,0.451,0.147,0.674c0,0.427-0.175,0.795-0.526,1.107c-0.351,0.312-0.766,0.467-1.245,0.467
		c-0.269,0-0.523-0.056-0.763-0.167c-0.239-0.112-0.444-0.266-0.615-0.463L8.233,16.075z"/>
</g>
<g>
	<path fill="#333333" d="M7,15.048l5.097-5.727c0.184-0.204,0.394-0.359,0.63-0.468c0.236-0.108,0.486-0.162,0.748-0.162
		c0.499,0,0.919,0.164,1.259,0.492c0.341,0.328,0.512,0.731,0.512,1.21c0,0.262-0.05,0.515-0.152,0.758
		c-0.102,0.242-0.248,0.459-0.438,0.649l-1.387,1.388h9.112c0.518,0,0.957,0.177,1.313,0.531c0.357,0.354,0.537,0.797,0.537,1.329
		c0,0.518-0.179,0.956-0.537,1.314c-0.357,0.357-0.795,0.536-1.313,0.536h-9.112l1.387,1.594c0.197,0.21,0.344,0.428,0.443,0.654
		c0.099,0.227,0.147,0.451,0.147,0.674c0,0.427-0.175,0.795-0.526,1.107c-0.351,0.312-0.766,0.467-1.245,0.467
		c-0.269,0-0.523-0.056-0.763-0.167c-0.239-0.112-0.444-0.266-0.615-0.463L7,15.048z"/>
</g>
</svg>
