<svg width="0" height="0" style="position:absolute"><symbol viewBox="0 0 32 8" enable-background="new 0 0 32 8" id="svg-flag-tag"><path d="M2 4.1l3.1 1.7c.2.1.3.2.4.3.1.1.1.2.1.3 0 .1 0 .3-.1.4h-.4c-.1 0-.2 0-.4-.1L0 4.1l4.7-2.6c.2-.1.3-.2.4-.2.1 0 .2 0 .3.1.1.1.1.2.1.4 0 .1 0 .2-.1.3 0 .1-.1.2-.2.2L2 4.1zM25.3.8l-3.1 6.7c-.1.2-.2.3-.2.3-.1.1-.2.2-.3.2-.1 0-.2 0-.3-.1-.1-.1-.1-.2-.1-.3 0-.1 0-.2.1-.4L24.5.5c.1-.2.1-.3.2-.3.1-.2.2-.2.3-.2.1 0 .2 0 .3.1.1.1.1.2.1.3.1.1 0 .3-.1.4zM30 4.1l-3.1-1.7c-.2-.1-.3-.2-.3-.2-.1-.1-.1-.2-.1-.3 0-.1 0-.3.1-.4.1-.1.2-.1.3-.1.1 0 .2 0 .4.1L32 4.1l-4.7 2.6c-.2.1-.3.1-.4.1-.1 0-.2 0-.3-.1-.1-.1-.1-.2-.1-.4 0-.1 0-.2.1-.3.1-.1.2-.1.3-.2L30 4.1zM7 .1v7.6h12.8V.1H7zm12 6.8H7.7v-1H19v1zm.1-1.7H7.8v-1h11.3v1zm0-1.7h-5.7v-1h5.7v1zm0-1.7h-5.7v-1h5.7v1z"/></symbol><symbol viewBox="0 0 280 320" enable-background="new 0 0 280 320" id="svg-popup"><path fill="#FFFF48" d="M29.1 12C18.6 12 9 21.2 9 31.7v178.8c0 10.5 7.7 23.8 16.6 29.6l98.7 63.6c8.8 5.7 23.4 5.7 32.3 0l98.1-63.2c8.9-5.7 16.4-19 16.4-29.6V31.7c0-10.5-9.1-19.7-19.6-19.7H29.1z" opacity=".9"/><path fill="none" stroke="#000" stroke-miterlimit="10" stroke-dasharray="2.9948,1.9965" d="M37 22.5c-9.7 0-17.5 7.1-17.5 16.8v165.5c0 9.7 6.6 22 14.8 27.3l90.8 58.7c8.2 5.3 21.5 5.3 29.7 0l90.6-58.3c8.2-5.3 15.2-17.5 15.2-27.3v-166c0-9.7-8.7-16.8-18.4-16.8H37z"/></symbol><symbol viewBox="0 0 660 360" enable-background="new 0 0 660 360" id="svg-shield"><path fill="#fff" d="M45.2 24C36.7 24 30 30.8 30 39.3V216c0 8.5 6.6 17.3 14.7 19.5l268.8 74.6c8.2 2.3 21.5 2.3 29.7 0l266.3-74c8.2-2.3 14.5-11.1 14.5-19.5V39.3c0-8.5-6.4-15.3-14.8-15.3h-564z"/><path fill="none" stroke="#010101" stroke-miterlimit="10" stroke-dasharray="3,2" d="M52.7 33.5c-7.9 0-15.2 5.9-15.2 13.9V210c0 7.9 6.6 16.2 14.3 18.3l261.9 69.8c7.6 2.1 20.2 2.1 27.9 0l259.3-69.2c7.6-2.1 13.6-10.3 13.6-18.3V47.4c0-7.9-5.9-13.9-13.8-13.9h-548z"/></symbol></svg>