<?xml version="1.0" encoding="utf-8"?>
<!-- Generator: Adobe Illustrator 16.0.0, SVG Export Plug-In . SVG Version: 6.00 Build 0)  -->
<!DOCTYPE svg PUBLIC "-//W3C//DTD SVG 1.1//EN" "http://www.w3.org/Graphics/SVG/1.1/DTD/svg11.dtd">
<svg version="1.1" id="Layer_1" xmlns="http://www.w3.org/2000/svg" xmlns:xlink="http://www.w3.org/1999/xlink" x="0px" y="0px"
	 width="1089.108px" height="1812.181px" viewBox="528.748 243.74 1089.108 1812.181"
	 enable-background="new 528.748 243.74 1089.108 1812.181" xml:space="preserve">
<title>marker</title>
<g>
	<title>Layer 1</title>
	<path id="svg_2" fill="#FFAA00" stroke="#000000" stroke-width="37" stroke-miterlimit="10" d="M1075.939,1959.629
		c-38.766-190.301-107.115-348.665-189.902-495.439c-61.407-108.872-132.544-209.363-198.364-314.938
		c-21.972-35.244-40.934-72.477-62.047-109.054c-42.216-73.137-76.444-157.936-74.269-267.933
		c2.125-107.473,33.208-193.684,78.029-264.172c73.72-115.935,197.201-210.989,362.885-235.969
		c135.466-20.424,262.475,14.082,352.543,66.748c73.6,43.038,130.596,100.527,173.92,168.28
		c45.22,70.716,76.358,154.26,78.971,263.231c1.337,55.83-7.805,107.532-20.684,150.418
		c-13.034,43.409-33.996,79.695-52.646,118.454c-36.406,75.659-82.049,144.982-127.855,214.346
		C1260.083,1460.208,1132.023,1670.912,1075.939,1959.629z"/>
	<circle id="svg_4" cx="1080.546" cy="740.047" r="183.332"/>
</g>
</svg>
